<svg width="278" height="48" viewBox="0 0 278 48" fill="none" xmlns="http://www.w3.org/2000/svg">
<rect width="278" height="48" fill="white"/>
<path d="M0.960007 5.904C0.960007 6.76095 1.07475 7.82588 1.30424 9.09879C1.52772 10.3383 2.53863 11.2793 3.79583 11.356C3.82331 11.3576 3.8509 11.3593 3.87861 11.3609C5.28536 11.4428 6.50735 10.4469 6.81601 9.072L6.87536 8.80763C7.14932 7.58726 8.23285 6.72 9.4836 6.72C10.936 6.72 12.1227 7.88105 12.1561 9.33307C12.2738 14.4565 12.3714 18.7103 12.4488 22.0943C12.4858 23.7103 13.8064 25 15.4228 25C17.046 25 18.3696 23.6974 18.3972 22.0744C18.5043 15.772 18.5808 11.3841 18.6268 8.91069C18.65 7.66281 19.6667 6.672 20.9148 6.672C21.9895 6.672 22.9213 7.41545 23.1599 8.46334L23.304 9.096C23.6269 10.514 24.8903 11.5481 26.3407 11.4427C26.3817 11.4398 26.4224 11.4367 26.4626 11.4335C27.6754 11.3385 28.5889 10.3925 28.7981 9.19403C29.0554 7.7201 29.184 6.49543 29.184 5.52C29.184 3.75278 27.6327 2.4 25.8655 2.4H4.61215C2.6253 2.4 0.960007 3.91714 0.960007 5.904Z" fill="#F00707"/>
<path d="M18.2672 29.7706C18.2839 28.7806 17.4854 28 16.4952 28H14.7547C13.5637 28 12.6274 29.9258 12.6539 31.1165C12.6769 32.1537 11.93 32.137 10.948 32.4716C10.5889 32.594 10.1822 32.7378 9.72777 32.9032C9.01015 33.1643 8.58474 33.9022 8.70806 34.6559C8.83489 35.431 9.50462 36 10.29 36H18.8499C19.9259 36 20.9605 35.4314 21.2919 34.4078C21.3846 34.1216 21.4613 33.832 21.5221 33.539C21.7224 32.573 20.9614 31.7322 19.9826 31.6098L19.8184 31.5893C18.9205 31.4771 18.252 30.6753 18.2672 29.7706Z" fill="#F00707"/>
<path d="M30.093 29.232C30.093 28.5266 30.6968 28 31.4022 28H34.9137C35.6741 28 36.237 28.7596 36.237 29.52C36.237 30.576 36.557 31.36 37.197 31.872C37.869 32.352 38.621 32.592 39.453 32.592C40.285 32.592 41.277 32.224 42.429 31.488C43.4009 30.8401 44.2133 30.2491 44.8664 29.715C45.0874 29.5343 45.2039 29.2571 45.1884 28.972C45.1597 28.4439 45.5802 28 46.1091 28H48.7377C49.9155 28 50.8584 28.9201 50.7974 30.0963C50.7396 31.2111 51.5721 32.2214 52.6731 32.4056C52.9926 32.459 53.293 32.5177 53.5744 32.5814C54.4056 32.7697 54.957 33.5158 54.957 34.368C54.9281 35.0042 54.5116 35.5617 53.899 35.7358C51.9273 36.2959 49.944 36.576 47.949 36.576C47.9412 36.576 47.9334 36.576 47.9257 36.576C47.1013 36.5754 46.3585 36.0886 46.1253 35.2978C45.9408 34.6725 45.8171 33.9864 45.7541 33.2397C45.7461 33.1453 45.6676 33.072 45.5729 33.072C45.5267 33.072 45.4825 33.0897 45.4485 33.121C44.8323 33.6896 43.7778 34.4092 42.285 35.28C40.781 36.144 39.565 36.576 38.637 36.576C35.917 36.576 33.805 36.016 32.301 34.896C30.829 33.776 30.093 31.888 30.093 29.232Z" fill="#F00707"/>
<path d="M51.117 19.968C51.117 22.775 48.7939 25 45.9869 25H33.6779C32.5493 25 31.8979 23.7992 32.733 23.04C33.757 22.112 35.181 21.568 37.005 21.408C38.6804 21.261 40.9362 21.1816 43.7725 21.1696C44.1967 21.1678 44.541 20.8242 44.541 20.4C44.541 18.448 44.221 17.024 43.581 16.128C42.973 15.2 41.885 14.736 40.317 14.736C40.0903 14.736 39.87 14.7489 39.6561 14.7746C38.6635 14.8938 38.0052 15.7663 37.7394 16.73L37.5721 17.3364C37.239 18.5437 36.1254 19.3682 34.8734 19.3344C33.9834 19.3103 33.1335 18.8593 32.8368 18.0199C32.7032 17.6417 32.589 17.2255 32.4943 16.7712C32.0827 14.7966 33.3451 12.9862 35.2846 12.432C35.7075 12.3111 36.169 12.1831 36.669 12.048C39.037 11.376 40.557 11.04 41.229 11.04C44.685 11.04 47.197 11.76 48.765 13.2C50.333 14.608 51.117 16.864 51.117 19.968Z" fill="#F00707"/>
<path d="M58.8726 28C60.1543 28 61.2351 28.9553 61.3924 30.2273C61.5099 31.1772 62.1516 32.0068 63.1012 32.1273C63.5256 32.1811 63.9798 32.208 64.464 32.208C65.584 32.208 66.464 31.984 67.104 31.536C67.776 31.088 68.112 30.464 68.112 29.664C68.112 28.9659 68.5933 28 69.2914 28H73.44C73.9287 28 74.352 28.3593 74.352 28.848C74.352 31.312 73.408 33.216 71.52 34.56C69.664 35.904 67.376 36.576 64.656 36.576C63.216 36.576 61.632 36.32 59.904 35.808C59.0262 35.543 58.217 35.2309 57.4764 34.8716C56.2292 34.2666 55.5636 32.9228 55.6556 31.5396C55.6815 31.15 55.7144 30.7655 55.7543 30.386C55.9011 28.9916 57.1221 28 58.5242 28H58.8726Z" fill="#F00707"/>
<path d="M72.816 24.864C72.8616 24.9182 72.8227 25 72.7518 25H63.2038C62.4759 25 61.755 24.8352 61.1143 24.4897C61.0782 24.4702 61.0427 24.4509 61.008 24.432C60.304 24.016 59.552 23.488 58.752 22.848C57.12 21.6 56.304 20.064 56.304 18.24C56.304 15.968 57.088 14.208 58.656 12.96C60.256 11.68 62.4 11.04 65.088 11.04C67.3268 11.04 69.5655 11.5172 71.8043 12.4717C72.6493 12.832 73.1704 13.6738 73.2 14.592C73.2 15.9875 73.14 17.1129 73.02 17.9682C72.8793 18.971 72.3482 19.6389 71.3525 19.8225C69.656 20.1351 67.8539 18.9465 67.3329 17.302L67.2017 16.8878C66.8669 15.8312 66.0523 14.976 64.944 14.976C64.208 14.976 63.6 15.2 63.12 15.648C62.672 16.096 62.448 16.624 62.448 17.232C62.448 17.84 62.688 18.4 63.168 18.912C63.648 19.392 64.144 19.776 64.656 20.064C65.168 20.352 65.904 20.736 66.864 21.216C67.856 21.664 68.592 22.016 69.072 22.272C69.584 22.528 70.224 22.912 70.992 23.424C71.792 23.936 72.4 24.416 72.816 24.864Z" fill="#F00707"/>
<path d="M83.2927 28C81.7476 28 80.5085 29.2816 80.5744 30.8252C80.599 31.4019 80.6232 31.9268 80.6471 32.4C80.6791 32.88 80.8551 33.6 81.1751 34.56C81.3019 34.9404 81.4187 35.2731 81.5254 35.558C81.7555 36.1726 82.3436 36.5462 82.9991 36.576C84.1831 36.576 85.7031 36.352 87.5591 35.904C88.727 35.6071 89.6377 35.3347 90.2913 35.0867C90.8841 34.8619 91.2144 34.276 91.2266 33.6421C91.2434 32.7702 90.6674 31.9939 89.8213 31.7826C88.9433 31.5632 88.155 31.3903 87.4563 31.2637C86.649 31.1175 86.028 30.5175 86.0376 29.6971C86.0479 28.813 85.3359 28 84.4518 28H83.2927Z" fill="#F00707"/>
<path d="M86.1509 22.1104C86.1234 23.7137 84.8166 25 83.2131 25C81.6269 25 80.3273 23.7404 80.2825 22.1549C80.2422 20.7326 80.2012 19.1979 80.1594 17.5508C80.1367 16.6526 79.4023 15.936 78.5039 15.936C77.5555 15.936 76.801 15.1407 76.8508 14.1936L76.8575 14.0677C76.8863 13.5203 77.1625 13.0099 77.636 12.7337C77.8971 12.5813 78.1726 12.4337 78.4626 12.291C79.1533 11.9509 79.7645 11.4582 80.1762 10.8077L82.5013 7.13341C83.071 6.23311 84.2598 5.69117 85.2561 6.06872C86.0791 6.38062 86.3537 7.18925 86.3444 8.06934L86.343 8.20863C86.3253 9.88867 87.6564 11.2585 89.3273 11.4344C89.3586 11.4377 89.3899 11.441 89.4212 11.4444C90.8806 11.6019 91.9589 12.9027 91.4704 14.2868C91.4564 14.3263 91.4422 14.3658 91.4276 14.4054C91.0694 15.3798 90.0808 15.936 89.0425 15.936C87.499 15.936 86.2394 17.1718 86.2112 18.7151C86.1893 19.9083 86.1692 21.0401 86.1509 22.1104Z" fill="#F00707"/>
<path d="M98.801 28C96.6671 28 95.0212 30.0235 96.1378 31.842C96.4743 32.39 96.8572 32.896 97.2866 33.36C99.3026 35.504 102.247 36.576 106.119 36.576C106.823 36.576 108.007 36.288 109.671 35.712C110.854 35.2877 112.054 34.7465 113.268 34.0883C114.227 33.5691 114.676 32.3819 114.243 31.3818C113.766 30.2799 112.476 29.983 111.368 30.445C109.086 31.3963 107.512 31.872 106.647 31.872C104.535 31.872 103.031 31.2 102.135 29.856C101.457 28.8397 100.443 28 99.2216 28H98.801Z" fill="#F00707"/>
<path fill-rule="evenodd" clip-rule="evenodd" d="M100.713 24.5005C100.726 24.7747 100.509 25 100.235 25H95.0835C94.6596 25 94.3106 24.6639 94.3106 24.24C94.3106 20.272 95.3026 17.088 97.2866 14.688C99.2706 12.256 102.215 11.04 106.119 11.04C109.223 11.04 111.591 12.048 113.223 14.064C114.855 16.08 115.671 18.704 115.671 21.936C115.671 23.6055 113.558 24.2233 111.889 24.1943L101.187 24.0086C100.919 24.0039 100.7 24.232 100.713 24.5005ZM101.81 16.7952C102.067 16.1699 102.61 15.5711 103.257 15.3748C104.028 15.1409 104.838 15.024 105.687 15.024C106.786 15.024 107.641 15.388 108.252 16.1161C109.635 17.7637 107.592 19.8391 105.441 19.8839C105.071 19.8916 104.707 19.8998 104.348 19.9086C102.548 19.9525 101.126 18.4609 101.81 16.7952Z" fill="#F00707"/>
<path d="M131.708 28C130.517 28 129.581 29.9258 129.607 31.1165C129.63 32.1537 128.883 32.137 127.901 32.4716C127.542 32.594 127.135 32.7378 126.681 32.9032C125.963 33.1643 125.538 33.9022 125.661 34.6559C125.788 35.431 126.458 36 127.243 36H135.803C136.879 36 137.914 35.4314 138.245 34.4078C138.338 34.1216 138.414 33.832 138.475 33.539C138.676 32.573 137.915 31.7322 136.936 31.6098L136.772 31.5893C135.874 31.4771 135.205 30.6753 135.22 29.7706C135.237 28.7806 134.438 28 133.448 28H131.708Z" fill="#F00707"/>
<path d="M135.35 22.0744C135.323 23.6974 133.999 25 132.376 25C130.759 25 129.439 23.7103 129.402 22.0943C129.324 18.7103 129.227 14.4565 129.109 9.33306C129.076 7.88104 127.889 6.72 126.437 6.72C125.186 6.72 124.102 7.58726 123.828 8.80763L123.769 9.072C123.46 10.4469 122.238 11.4428 120.832 11.3609C120.804 11.3593 120.776 11.3576 120.749 11.356C119.492 11.2793 118.481 10.3383 118.257 9.09878C118.028 7.82588 117.913 6.76095 117.913 5.904C117.913 3.91714 119.578 2.4 121.565 2.4H142.819C144.586 2.4 146.137 3.75279 146.137 5.52C146.137 6.49543 146.008 7.7201 145.751 9.19403C145.542 10.3925 144.629 11.3385 143.416 11.4335C143.375 11.4367 143.335 11.4398 143.294 11.4427C141.843 11.5481 140.58 10.514 140.257 9.096L140.113 8.46334C139.874 7.41545 138.943 6.672 137.868 6.672C136.62 6.672 135.603 7.6628 135.58 8.91068C135.534 11.3841 135.457 15.772 135.35 22.0744Z" fill="#F00707"/>
<path d="M151.254 28C149.12 28 147.474 30.0235 148.591 31.842C148.927 32.39 149.31 32.896 149.74 33.36C151.756 35.504 154.7 36.576 158.572 36.576C159.276 36.576 160.46 36.288 162.124 35.712C163.307 35.2877 164.507 34.7465 165.721 34.0883C166.68 33.5691 167.129 32.3819 166.696 31.3818C166.219 30.2799 164.929 29.983 163.821 30.445C161.539 31.3963 159.965 31.872 159.1 31.872C156.988 31.872 155.484 31.2 154.588 29.856C153.91 28.8397 152.896 28 151.675 28H151.254Z" fill="#F00707"/>
<path fill-rule="evenodd" clip-rule="evenodd" d="M153.166 24.5005C153.179 24.7747 152.962 25 152.688 25H147.537C147.113 25 146.764 24.6639 146.764 24.24C146.764 20.272 147.756 17.088 149.74 14.688C151.724 12.256 154.668 11.04 158.572 11.04C161.676 11.04 164.044 12.048 165.676 14.064C167.308 16.08 168.124 18.704 168.124 21.936C168.124 23.6055 166.011 24.2233 164.342 24.1943L153.641 24.0086C153.372 24.0039 153.153 24.232 153.166 24.5005ZM154.263 16.7952C154.52 16.1699 155.063 15.5711 155.71 15.3748C156.481 15.1409 157.291 15.024 158.14 15.024C159.239 15.024 160.094 15.388 160.705 16.1161C162.088 17.7637 160.045 19.8391 157.894 19.8839C157.524 19.8916 157.16 19.8998 156.801 19.9086C155.001 19.9525 153.579 18.4609 154.263 16.7952Z" fill="#F00707"/>
<path d="M177.188 28C175.999 28 175.048 28.9894 175.096 30.1777C175.137 31.1871 174.45 32.0841 173.49 32.399C173.058 32.5408 172.584 32.7068 172.067 32.8968C171.353 33.1595 170.934 33.8971 171.057 34.6482C171.185 35.4277 171.858 36 172.648 36H181.476C182.556 36 183.588 35.4172 183.921 34.3898C184 34.148 184.067 33.9058 184.123 33.6631C184.361 32.633 183.542 31.7325 182.491 31.6113L182.179 31.5753C181.281 31.4717 180.613 30.6394 180.641 29.7356C180.672 28.7542 179.882 28 178.901 28H177.188Z" fill="#F00707"/>
<path d="M180.878 22.0372C180.827 23.6878 179.475 25 177.823 25C176.183 25 174.836 23.7055 174.77 22.0668L174.623 18.4205C174.577 17.2716 173.667 16.3447 172.538 16.1262C171.473 15.9201 170.804 14.9224 170.879 13.8403C170.946 12.8789 171.61 12.0782 172.562 11.93C173.095 11.847 173.739 11.7584 174.494 11.664C175.644 11.5202 176.617 11.4226 177.411 11.3711C178.165 11.3222 178.866 11.617 179.294 12.24C179.733 12.8378 180.568 13.1135 181.25 12.8221C182.056 12.4774 182.956 12.1393 183.95 11.808C185.518 11.296 186.478 11.04 186.83 11.04C188.067 11.04 189.183 11.157 190.177 11.391C192.903 12.0325 196.015 12.7448 198.686 11.904C200.414 11.328 201.486 11.04 201.902 11.04C204.942 11.04 207.214 11.76 208.718 13.2C210.222 14.64 210.974 17.04 210.974 20.4C210.974 20.8298 210.967 21.3566 210.951 21.9803C210.909 23.6679 209.515 25 207.827 25H207.642C206.042 25 204.732 23.7273 204.686 22.128C204.622 19.888 204.35 18.336 203.87 17.472C203.422 16.608 202.366 16.176 200.702 16.176C200.137 16.176 199.585 16.2183 199.046 16.3028C197.193 16.5937 196.149 18.4171 196.106 20.2925C196.093 20.8568 196.077 21.4314 196.057 22.0162C196.001 23.6882 194.618 25 192.945 25C191.258 25 189.873 23.6667 189.808 21.9809L189.806 21.936C189.742 19.856 189.486 18.384 189.038 17.52C188.622 16.624 187.806 16.176 186.59 16.176C185.95 16.176 185.022 16.288 183.806 16.512C182.096 16.8271 180.99 18.3705 180.937 20.109C180.92 20.6698 180.9 21.3125 180.878 22.0372Z" fill="#F00707"/>
<path d="M192.271 28C191.053 28 190.078 29.0125 190.125 30.2299C190.163 31.2213 189.516 32.1068 188.572 32.4106C188.093 32.5645 187.591 32.733 187.065 32.9161C186.342 33.1679 185.912 33.9068 186.035 34.6626C186.162 35.4338 186.828 36 187.609 36H196.423C197.516 36 198.551 35.3935 198.887 34.3535C198.964 34.1134 199.031 33.8756 199.088 33.6401C199.33 32.6238 198.526 31.7347 197.488 31.6164L197.123 31.5749C196.228 31.4728 195.576 30.6577 195.64 29.7587C195.709 28.7943 194.941 28 193.975 28H192.271Z" fill="#F00707"/>
<path d="M205.655 28C205.217 28 204.866 28.362 204.878 28.8C204.886 29.1337 204.894 29.4486 204.902 29.7448C204.936 31.0197 204.104 32.1575 202.901 32.5809C202.624 32.6784 202.342 32.781 202.055 32.8888C201.345 33.1551 200.933 33.8915 201.056 34.6398C201.184 35.4242 201.862 36 202.657 36H211.428C212.508 36 213.54 35.4172 213.873 34.3898C213.954 34.1414 214.022 33.8925 214.079 33.6431C214.312 32.6237 213.502 31.7336 212.464 31.6137L212.136 31.5759C211.24 31.4725 210.583 30.6229 210.629 29.7222C210.678 28.7481 209.897 28 208.922 28H205.655Z" fill="#F00707"/>
<path d="M221.956 28C220.258 28 218.898 29.4077 218.956 31.1053L219.283 40.6786C219.329 42.0037 218.433 43.1939 217.18 43.6262C216.898 43.7234 216.596 43.8299 216.275 43.9457C215.556 44.2049 215.13 44.943 215.254 45.6969C215.38 46.4714 216.05 47.04 216.834 47.04H225.671C226.751 47.04 227.783 46.4572 228.116 45.4298C228.192 45.1975 228.257 44.9647 228.312 44.7315C228.557 43.686 227.724 42.7711 226.658 42.648C225.591 42.5249 224.785 41.6217 224.795 40.5478C224.797 40.3111 224.8 40.0651 224.802 39.81C224.828 37.5535 227.353 36.2077 229.591 36.5003C229.977 36.5508 230.359 36.576 230.738 36.576C233.969 36.576 236.434 35.312 238.13 32.784C238.416 32.3601 238.678 31.9199 238.917 31.4635C239.792 29.7908 238.386 28 236.498 28C235.097 28 233.985 29.0447 233.346 30.2918C232.642 31.6653 231.581 32.352 230.161 32.352C229.458 32.352 228.594 32.112 227.57 31.632C226.765 31.2169 226.045 30.7491 225.409 30.2288C225.128 29.9992 224.981 29.6484 224.987 29.2858C224.998 28.579 224.428 28 223.721 28H221.956Z" fill="#F00707"/>
<path d="M235.136 25C234.719 25 234.385 24.6565 234.385 24.24C234.385 22.224 234.178 20.608 233.762 19.392C233.378 18.176 232.913 17.328 232.37 16.848C231.857 16.336 231.249 16.08 230.546 16.08C229.733 16.08 228.794 16.2609 227.726 16.6228C226.108 17.1714 225.153 18.7839 225.126 20.4924L225.105 21.8175C225.077 23.5832 223.637 25 221.871 25C220.129 25 218.699 23.6188 218.64 21.8771L218.523 18.4633C218.481 17.2405 217.369 16.2481 216.17 16.0039C215.159 15.798 214.641 14.9051 214.739 13.8779C214.741 13.8492 214.744 13.8205 214.747 13.7918C214.848 12.785 215.635 12.0103 216.64 11.8939C218.133 11.7209 220.303 11.5612 223.148 11.4147C223.625 11.3901 223.995 11.4628 224.192 11.8974C224.523 12.6236 225.427 13.1713 226.151 12.8346C228.72 11.6382 230.457 11.04 231.361 11.04C234.529 11.04 236.882 12.16 238.417 14.4C239.954 16.608 240.721 19.584 240.721 23.328C240.721 24.2716 239.931 25 238.988 25H235.136Z" fill="#F00707"/>
<path d="M247.59 28C246.386 28 245.422 28.9975 245.463 30.2004C245.498 31.2033 244.827 32.0982 243.875 32.4133C243.446 32.5551 242.968 32.7203 242.439 32.909C241.719 33.1663 241.291 33.9046 241.415 34.6593C241.541 35.4324 242.209 36 242.993 36H251.802C252.895 36 253.931 35.393 254.267 34.352C254.341 34.1243 254.405 33.8987 254.459 33.6752C254.711 32.6395 253.891 31.7318 252.833 31.6096L252.534 31.5752C251.633 31.4712 250.955 30.7823 250.969 29.875C250.985 28.8888 250.191 28 249.204 28H247.59Z" fill="#F00707"/>
<path d="M251.091 22.094C251.066 23.7064 249.751 25 248.139 25C246.547 25 245.242 23.7388 245.188 22.1484L244.682 7.37262C244.641 6.17238 243.556 5.18318 242.378 4.9496C241.344 4.74457 240.801 3.83998 240.904 2.79088C240.908 2.75229 240.912 2.71373 240.916 2.67522C241.017 1.70643 241.747 0.934666 242.71 0.785133C244.637 0.48571 247.351 0.335999 250.85 0.335999C251.521 0.335999 252.009 0.867757 251.967 1.53745C251.909 2.4568 251.779 3.30438 251.577 4.08016C251.46 4.52968 251.374 4.98774 251.367 5.45216C251.335 7.37595 251.291 9.94256 251.234 13.152C251.181 16.454 251.133 19.4347 251.091 22.094Z" fill="#F00707"/>
<path d="M260.473 28C258.339 28 256.693 30.0235 257.81 31.842C258.146 32.39 258.529 32.896 258.959 33.36C260.975 35.504 263.919 36.576 267.791 36.576C268.494 36.576 269.679 36.288 271.343 35.712C272.526 35.2877 273.725 34.7465 274.94 34.0883C275.899 33.5691 276.348 32.3819 275.915 31.3818C275.437 30.2799 274.148 29.983 273.04 30.445C270.758 31.3963 269.184 31.872 268.318 31.872C266.206 31.872 264.702 31.2 263.807 29.856C263.129 28.8397 262.115 28 260.893 28H260.473Z" fill="#F00707"/>
<path fill-rule="evenodd" clip-rule="evenodd" d="M262.385 24.5005C262.398 24.7747 262.181 25 261.907 25H256.755C256.331 25 255.982 24.6639 255.982 24.24C255.982 20.272 256.975 17.088 258.959 14.688C260.942 12.256 263.886 11.04 267.791 11.04C270.895 11.04 273.262 12.048 274.895 14.064C276.527 16.08 277.343 18.704 277.343 21.936C277.343 23.6055 275.23 24.2233 273.561 24.1943L262.859 24.0086C262.591 24.0039 262.372 24.232 262.385 24.5005ZM263.482 16.7952C263.739 16.1699 264.282 15.5711 264.929 15.3748C265.7 15.1409 266.51 15.024 267.359 15.024C268.457 15.024 269.313 15.388 269.924 16.1161C271.307 17.7637 269.264 19.8391 267.113 19.8839C266.743 19.8916 266.379 19.8998 266.02 19.9086C264.22 19.9525 262.798 18.4609 263.482 16.7952Z" fill="#F00707"/>
</svg>
